<svg xmlns="http://www.w3.org/2000/svg" width="1827" height="1827" viewBox="0 0 1827 1827" fill="none"><path d="M915.328 404.253C1195.65 404.253 1422.75 631.47 1422.75 911.673C1422.75 1191.88 1195.65 1419.09 915.328 1419.09C900.292 1419.09 885.494 1418.5 870.815 1417.18C1130.25 1394.51 1333.6 1176.84 1333.6 911.673C1333.6 646.507 1130.25 428.836 870.815 406.162C885.494 404.85 900.292 404.253 915.328 404.253Z" fill="#8C7C5D" stroke="#8C7C5D" stroke-width="1.3332" stroke-miterlimit="10"></path><path d="M870.814 406.162C1130.25 428.836 1333.6 646.506 1333.6 911.673C1333.6 1176.84 1130.25 1394.51 870.814 1417.18C611.495 1394.63 407.906 1176.84 407.906 911.673C407.906 646.506 611.495 428.717 870.814 406.162Z" stroke="#8C7C5D" stroke-width="1.3332" stroke-miterlimit="10"></path><path d="M870.814 406.162C1130.25 428.836 1333.6 646.506 1333.6 911.673C1333.6 1176.84 1130.25 1394.51 870.814 1417.18C611.495 1394.63 407.906 1176.84 407.906 911.673C407.906 646.506 611.495 428.717 870.814 406.162Z" stroke="#8C7C5D" stroke-width="1.3332" stroke-miterlimit="10"></path><path d="M870.695 991.987C915.051 991.987 951.008 956.029 951.008 911.673C951.008 867.317 915.051 831.359 870.695 831.359C826.339 831.359 790.381 867.317 790.381 911.673C790.381 956.029 826.339 991.987 870.695 991.987Z" fill="#8C7C5D"></path><path d="M870.815 1134.36C895.201 1134.36 914.969 1114.59 914.969 1090.2C914.969 1065.82 895.201 1046.05 870.815 1046.05C846.429 1046.05 826.66 1065.82 826.66 1090.2C826.66 1114.59 846.429 1134.36 870.815 1134.36Z" fill="#8C7C5D"></path></svg>