<svg xmlns="http://www.w3.org/2000/svg" width="1017" height="1017" viewBox="0 0 1017 1017" fill="none"><path d="M508.422 1C788.744 1 1015.84 228.217 1015.84 508.42C1015.84 788.623 788.744 1015.84 508.422 1015.84C493.385 1015.84 478.588 1015.24 463.909 1013.93C723.347 991.257 926.697 773.587 926.697 508.42C926.697 243.254 723.347 25.5834 463.909 2.90939C478.588 1.59668 493.385 1 508.422 1Z" fill="#8C7C5D" stroke="#8C7C5D" stroke-width="1.3332" stroke-miterlimit="10"></path><path d="M463.907 2.90918C723.346 25.5832 926.696 243.254 926.696 508.42C926.696 773.586 723.346 991.257 463.907 1013.93C204.589 991.376 1 773.586 1 508.42C1 243.254 204.589 25.4638 463.907 2.90918Z" stroke="#8C7C5D" stroke-width="1.3332" stroke-miterlimit="10"></path><path d="M463.788 588.734C508.144 588.734 544.102 552.776 544.102 508.42C544.102 464.064 508.144 428.106 463.788 428.106C419.432 428.106 383.475 464.064 383.475 508.42C383.475 552.776 419.432 588.734 463.788 588.734Z" fill="#8C7C5D"></path><path d="M463.909 731.103C488.294 731.103 508.063 711.334 508.063 686.949C508.063 662.563 488.294 642.794 463.909 642.794C439.523 642.794 419.754 662.563 419.754 686.949C419.754 711.334 439.523 731.103 463.909 731.103Z" fill="#8C7C5D"></path></svg>