<svg xmlns="http://www.w3.org/2000/svg" width="501" height="500" viewBox="0 0 501 500" fill="none"><path d="M111.458 249.5C111.458 172.784 173.493 110.633 249.994 110.633C326.495 110.633 388.53 172.784 388.53 249.5C388.53 253.615 388.367 257.665 388.009 261.682C381.818 190.681 322.39 135.03 249.994 135.03C177.598 135.03 118.17 190.681 111.979 261.682C111.621 257.665 111.458 253.615 111.458 249.5Z" fill="#8C7C5D" stroke="#8C7C5D" stroke-width="1.3332" stroke-miterlimit="10"></path><path d="M111.979 261.682C118.17 190.681 177.598 135.029 249.994 135.029C322.39 135.029 381.818 190.681 388.009 261.682C381.851 332.65 322.39 388.367 249.994 388.367C177.598 388.367 118.137 332.65 111.979 261.682Z" stroke="#8C7C5D" stroke-width="1.3332" stroke-miterlimit="10"></path><path d="M111.979 261.682C118.17 190.681 177.598 135.029 249.994 135.029C322.39 135.029 381.818 190.681 388.009 261.682C381.851 332.65 322.39 388.367 249.994 388.367C177.598 388.367 118.137 332.65 111.979 261.682Z" stroke="#8C7C5D" stroke-width="1.3332" stroke-miterlimit="10"></path><path d="M449.489 261.682H50.5303" stroke="#8C7C5D" stroke-width="1.3332" stroke-miterlimit="10"></path><path d="M449.489 291.141H50.5303" stroke="#8C7C5D" stroke-width="1.3332" stroke-miterlimit="10"></path><path d="M449.489 320.566H50.5303" stroke="#8C7C5D" stroke-width="1.3332" stroke-miterlimit="10"></path><path d="M449.489 320.566H50.5303" stroke="#8C7C5D" stroke-width="1.3332" stroke-miterlimit="10"></path><path d="M449.489 350.025H50.5303" stroke="#8C7C5D" stroke-width="1.3332" stroke-miterlimit="10"></path><path d="M249.994 200.38C262.104 200.38 271.921 190.54 271.921 178.401C271.921 166.262 262.104 156.421 249.994 156.421C237.884 156.421 228.066 166.262 228.066 178.401C228.066 190.54 237.884 200.38 249.994 200.38Z" fill="#8C7C5D"></path></svg>