<svg xmlns="http://www.w3.org/2000/svg" width="386" height="386" viewBox="0 0 386 386" fill="none"><g clip-path="url(#clip0_834_5202)"><path d="M183.981 346.95V38.6237" stroke="#8C7C5D" stroke-width="1.3332" stroke-miterlimit="10"></path><path d="M193.386 85.7099C252.611 85.7099 300.591 133.652 300.591 192.775C300.591 251.897 252.611 299.839 193.386 299.839C190.209 299.839 187.083 299.713 183.981 299.436C238.794 294.652 281.757 248.724 281.757 192.775C281.757 136.825 238.794 90.897 183.981 86.1128C187.083 85.8358 190.209 85.7099 193.386 85.7099Z" fill="#8C7C5D" stroke="#8C7C5D" stroke-width="1.3332" stroke-miterlimit="10"></path><path d="M183.982 86.1128C238.794 90.897 281.757 136.825 281.757 192.775C281.757 248.724 238.794 294.652 183.982 299.436C129.194 294.677 86.1807 248.724 86.1807 192.775C86.1807 136.825 129.194 90.8718 183.982 86.1128Z" stroke="#8C7C5D" stroke-width="1.3332" stroke-miterlimit="10"></path><path d="M183.982 86.1128C238.794 90.897 281.757 136.825 281.757 192.775C281.757 248.724 238.794 294.652 183.982 299.436C129.194 294.677 86.1807 248.724 86.1807 192.775C86.1807 136.825 129.194 90.8718 183.982 86.1128Z" stroke="#8C7C5D" stroke-width="1.3332" stroke-miterlimit="10"></path><path d="M139.456 209.721C148.827 209.721 156.424 202.134 156.424 192.775C156.424 183.415 148.827 175.828 139.456 175.828C130.084 175.828 122.487 183.415 122.487 192.775C122.487 202.134 130.084 209.721 139.456 209.721Z" fill="#8C7C5D"></path><path d="M206.749 280.828C211.901 280.828 216.077 276.657 216.077 271.512C216.077 266.366 211.901 262.195 206.749 262.195C201.597 262.195 197.42 266.366 197.42 271.512C197.42 276.657 201.597 280.828 206.749 280.828Z" fill="#8C7C5D"></path><path d="M229.34 271.512C234.492 271.512 238.668 267.341 238.668 262.195C238.668 257.05 234.492 252.879 229.34 252.879C224.187 252.879 220.011 257.05 220.011 262.195C220.011 267.341 224.187 271.512 229.34 271.512Z" fill="#8C7C5D"></path></g><defs><clipPath id="clip0_834_5202"><rect width="216.932" height="308.374" fill="white" transform="translate(84.9199 38.6)"></rect></clipPath></defs></svg>