<svg xmlns="http://www.w3.org/2000/svg" width="500" height="500" viewBox="0 0 500 500" fill="none"><path d="M110.958 249.5C110.958 172.784 172.993 110.633 249.494 110.633C325.995 110.633 388.03 172.784 388.03 249.5C388.03 253.615 387.867 257.665 387.509 261.682C381.318 190.681 321.89 135.03 249.494 135.03C177.098 135.03 117.67 190.681 111.479 261.682C111.121 257.665 110.958 253.615 110.958 249.5Z" fill="#8C7C5D" stroke="#8C7C5D" stroke-width="1.3332" stroke-miterlimit="10"></path><path d="M111.479 261.682C117.67 190.681 177.098 135.029 249.494 135.029C321.89 135.029 381.318 190.681 387.509 261.682C381.351 332.65 321.89 388.367 249.494 388.367C177.098 388.367 117.637 332.65 111.479 261.682Z" stroke="#8C7C5D" stroke-width="1.3332" stroke-miterlimit="10"></path><path d="M448.989 261.682H50.0303" stroke="#8C7C5D" stroke-width="1.3332" stroke-miterlimit="10"></path><path d="M448.989 291.141H50.0303" stroke="#8C7C5D" stroke-width="1.3332" stroke-miterlimit="10"></path><path d="M448.989 320.566H50.0303" stroke="#8C7C5D" stroke-width="1.3332" stroke-miterlimit="10"></path><path d="M448.989 320.566H50.0303" stroke="#8C7C5D" stroke-width="1.3332" stroke-miterlimit="10"></path><path d="M448.989 350.025H50.0303" stroke="#8C7C5D" stroke-width="1.3332" stroke-miterlimit="10"></path><path d="M249.494 200.38C261.604 200.38 271.421 190.54 271.421 178.401C271.421 166.262 261.604 156.421 249.494 156.421C237.384 156.421 227.566 166.262 227.566 178.401C227.566 190.54 237.384 200.38 249.494 200.38Z" fill="#8C7C5D"></path></svg>