<svg xmlns="http://www.w3.org/2000/svg" width="500" height="500" viewBox="0 0 500 500" fill="none"><path d="M410.733 249.5C410.733 255.805 405.621 260.917 399.315 260.917C393.01 260.917 387.898 255.805 387.898 249.5C387.898 243.194 393.01 238.082 399.315 238.082C405.621 238.082 410.733 243.194 410.733 249.5Z" fill="#8C7C5D" stroke="#8C7C5D" stroke-width="1.3332"></path><path d="M228.539 388.367C151.822 388.367 89.6719 326.184 89.6719 249.5C89.6719 172.816 151.822 110.633 228.539 110.633C232.654 110.633 236.704 110.796 240.721 111.156C169.72 117.361 114.068 176.931 114.068 249.5C114.068 322.069 169.72 381.639 240.721 387.844C236.704 388.204 232.654 388.367 228.539 388.367Z" fill="#8C7C5D" stroke="#8C7C5D" stroke-width="1.3332" stroke-miterlimit="10"></path><path d="M240.721 387.844C169.72 381.639 114.068 322.069 114.068 249.5C114.068 176.931 169.72 117.361 240.721 111.156C311.69 117.328 367.407 176.931 367.407 249.5C367.407 322.069 311.69 381.672 240.721 387.844Z" stroke="#8C7C5D" stroke-width="1.3332" stroke-miterlimit="10"></path><path d="M240.721 387.844C169.72 381.639 114.068 322.069 114.068 249.5C114.068 176.931 169.72 117.361 240.721 111.156C311.69 117.328 367.407 176.931 367.407 249.5C367.407 322.069 311.69 381.672 240.721 387.844Z" stroke="#8C7C5D" stroke-width="1.3332" stroke-miterlimit="10"></path><path d="M276.418 271.48C288.557 271.48 298.398 261.639 298.398 249.5C298.398 237.361 288.557 227.52 276.418 227.52C264.279 227.52 254.438 237.361 254.438 249.5C254.438 261.639 264.279 271.48 276.418 271.48Z" fill="#8C7C5D"></path><path d="M336.772 261.584C343.446 261.584 348.856 256.173 348.856 249.5C348.856 242.826 343.446 237.416 336.772 237.416C330.099 237.416 324.688 242.826 324.688 249.5C324.688 256.173 330.099 261.584 336.772 261.584Z" fill="#8C7C5D"></path></svg>