<svg xmlns="http://www.w3.org/2000/svg" width="37" height="36" viewBox="0 0 37 36" fill="none"><path d="M25.9479 2.97925H11.0521C6.9387 2.97925 3.60416 6.31379 3.60416 10.4272V25.323C3.60416 29.4364 6.9387 32.7709 11.0521 32.7709H25.9479C30.0613 32.7709 33.3958 29.4364 33.3958 25.323V10.4272C33.3958 6.31379 30.0613 2.97925 25.9479 2.97925Z" stroke="black" stroke-width="1.48958" stroke-linecap="round" stroke-linejoin="round"></path><path d="M24.4583 16.9366C24.6421 18.1763 24.4304 19.4424 23.8531 20.5549C23.2759 21.6673 22.3626 22.5694 21.2432 23.1328C20.1237 23.6963 18.8551 23.8924 17.6178 23.6933C16.3804 23.4942 15.2374 22.91 14.3512 22.0238C13.465 21.1376 12.8808 19.9946 12.6817 18.7572C12.4826 17.5199 12.6787 16.2513 13.2422 15.1318C13.8056 14.0124 14.7077 13.0991 15.8202 12.5219C16.9326 11.9447 18.1987 11.7329 19.4384 11.9167C20.7029 12.1043 21.8736 12.6935 22.7776 13.5975C23.6815 14.5014 24.2708 15.6721 24.4583 16.9366Z" stroke="black" stroke-width="1.48958" stroke-linecap="round" stroke-linejoin="round"></path><path d="M26.6927 9.68237H26.707" stroke="black" stroke-width="1.48958" stroke-linecap="round" stroke-linejoin="round"></path></svg>