<svg xmlns="http://www.w3.org/2000/svg" width="1177" height="1017" viewBox="0 0 1177 1017" fill="none"><path d="M1132.44 552.574C1156.82 552.574 1176.59 532.805 1176.59 508.419C1176.59 484.033 1156.82 464.265 1132.44 464.265C1108.05 464.265 1088.28 484.033 1088.28 508.419C1088.28 532.805 1108.05 552.574 1132.44 552.574Z" fill="#8C7C5D"></path><path d="M508.421 1015.84C228.098 1015.84 1 788.623 1 508.42C1 228.217 228.098 1 508.421 1C523.457 1 538.255 1.59668 552.934 2.90939C293.495 25.5834 90.1447 243.254 90.1447 508.42C90.1447 773.586 293.495 991.256 552.934 1013.93C538.255 1015.24 523.457 1015.84 508.421 1015.84Z" fill="#8C7C5D" stroke="#8C7C5D" stroke-width="1.3332" stroke-miterlimit="10"></path><path d="M552.935 1013.93C293.495 991.255 90.1445 773.585 90.1445 508.419C90.1445 243.253 293.495 25.5831 552.935 2.90918C812.255 25.4638 1015.84 243.253 1015.84 508.419C1015.84 773.585 812.255 991.375 552.935 1013.93Z" stroke="#8C7C5D" stroke-width="1.3332" stroke-miterlimit="10"></path><path d="M683.37 588.734C727.726 588.734 763.684 552.776 763.684 508.42C763.684 464.064 727.726 428.106 683.37 428.106C639.014 428.106 603.057 464.064 603.057 508.42C603.057 552.776 639.014 588.734 683.37 588.734Z" fill="#8C7C5D"></path><path d="M903.906 552.574C928.292 552.574 948.061 532.805 948.061 508.419C948.061 484.033 928.292 464.265 903.906 464.265C879.52 464.265 859.751 484.033 859.751 508.419C859.751 532.805 879.52 552.574 903.906 552.574Z" fill="#8C7C5D"></path></svg>