<svg xmlns="http://www.w3.org/2000/svg" width="1827" height="1827" viewBox="0 0 1827 1827" fill="none"><path d="M1459.1 955.827C1483.48 955.827 1503.25 936.058 1503.25 911.672C1503.25 887.286 1483.48 867.518 1459.1 867.518C1434.71 867.518 1414.94 887.286 1414.94 911.672C1414.94 936.058 1434.71 955.827 1459.1 955.827Z" fill="#8C7C5D"></path><path d="M835.082 1419.09C554.759 1419.09 327.661 1191.88 327.661 911.673C327.661 631.47 554.759 404.253 835.082 404.253C850.119 404.253 864.916 404.85 879.595 406.162C620.156 428.836 416.806 646.507 416.806 911.673C416.806 1176.84 620.156 1394.51 879.595 1417.18C864.916 1418.5 850.119 1419.09 835.082 1419.09Z" fill="#8C7C5D" stroke="#8C7C5D" stroke-width="1.3332" stroke-miterlimit="10"></path><path d="M879.596 1417.18C620.156 1394.51 416.806 1176.84 416.806 911.672C416.806 646.506 620.156 428.836 879.596 406.162C1138.92 428.717 1342.51 646.506 1342.51 911.672C1342.51 1176.84 1138.92 1394.63 879.596 1417.18Z" stroke="#8C7C5D" stroke-width="1.3332" stroke-miterlimit="10"></path><path d="M879.596 1417.18C620.156 1394.51 416.806 1176.84 416.806 911.672C416.806 646.506 620.156 428.836 879.596 406.162C1138.92 428.717 1342.51 646.506 1342.51 911.672C1342.51 1176.84 1138.92 1394.63 879.596 1417.18Z" stroke="#8C7C5D" stroke-width="1.3332" stroke-miterlimit="10"></path><path d="M1010.03 991.987C1054.39 991.987 1090.35 956.029 1090.35 911.673C1090.35 867.317 1054.39 831.359 1010.03 831.359C965.675 831.359 929.718 867.317 929.718 911.673C929.718 956.029 965.675 991.987 1010.03 991.987Z" fill="#8C7C5D"></path><path d="M1230.57 955.827C1254.95 955.827 1274.72 936.058 1274.72 911.672C1274.72 887.286 1254.95 867.518 1230.57 867.518C1206.18 867.518 1186.41 887.286 1186.41 911.672C1186.41 936.058 1206.18 955.827 1230.57 955.827Z" fill="#8C7C5D"></path></svg>