<svg xmlns="http://www.w3.org/2000/svg" width="501" height="500" viewBox="0 0 501 500" fill="none"><path d="M251 110.633C327.717 110.633 389.867 172.816 389.867 249.5C389.867 326.184 327.717 388.367 251 388.367C246.885 388.367 242.835 388.204 238.818 387.845C309.82 381.639 365.471 322.069 365.471 249.5C365.471 176.931 309.82 117.361 238.818 111.156C242.835 110.796 246.885 110.633 251 110.633Z" fill="#8C7C5D"></path><path d="M238.818 111.156C309.819 117.361 365.47 176.931 365.47 249.5C365.47 322.069 309.819 381.639 238.818 387.844C167.849 381.672 112.133 322.069 112.133 249.5C112.133 176.931 167.849 117.328 238.818 111.156Z" stroke="#8C7C5D" stroke-width="1.3332" stroke-miterlimit="10"></path><path d="M238.818 111.156C309.819 117.361 365.47 176.931 365.47 249.5C365.47 322.069 309.819 381.639 238.818 387.844C167.849 381.672 112.133 322.069 112.133 249.5C112.133 176.931 167.849 117.328 238.818 111.156Z" stroke="#8C7C5D" stroke-width="1.3332" stroke-miterlimit="10"></path><path d="M238.785 271.48C250.924 271.48 260.765 261.639 260.765 249.5C260.765 237.361 250.924 227.52 238.785 227.52C226.646 227.52 216.806 237.361 216.806 249.5C216.806 261.639 226.646 271.48 238.785 271.48Z" fill="#8C7C5D"></path><path d="M238.818 310.442C245.492 310.442 250.902 305.032 250.902 298.358C250.902 291.685 245.492 286.274 238.818 286.274C232.145 286.274 226.734 291.685 226.734 298.358C226.734 305.032 232.145 310.442 238.818 310.442Z" fill="#8C7C5D"></path></svg>