<svg xmlns="http://www.w3.org/2000/svg" width="25" height="25" viewBox="0 0 25 25" fill="none"><path d="M16.75 8.91797C18.3413 8.91797 19.8674 9.55011 20.9926 10.6753C22.1179 11.8005 22.75 13.3267 22.75 14.918V21.918H18.75V14.918C18.75 14.3875 18.5393 13.8788 18.1642 13.5038C17.7891 13.1287 17.2804 12.918 16.75 12.918C16.2196 12.918 15.7109 13.1287 15.3358 13.5038C14.9607 13.8788 14.75 14.3875 14.75 14.918V21.918H10.75V14.918C10.75 13.3267 11.3821 11.8005 12.5074 10.6753C13.6326 9.55011 15.1587 8.91797 16.75 8.91797Z" stroke="#2A3030" stroke-linecap="round" stroke-linejoin="round"></path><path d="M6.75 9.91797H2.75V21.918H6.75V9.91797Z" stroke="#2A3030" stroke-linecap="round" stroke-linejoin="round"></path><path d="M4.75 6.91797C5.85457 6.91797 6.75 6.02254 6.75 4.91797C6.75 3.8134 5.85457 2.91797 4.75 2.91797C3.64543 2.91797 2.75 3.8134 2.75 4.91797C2.75 6.02254 3.64543 6.91797 4.75 6.91797Z" stroke="#2A3030" stroke-linecap="round" stroke-linejoin="round"></path></svg>