<svg xmlns="http://www.w3.org/2000/svg" width="501" height="500" viewBox="0 0 501 500" fill="none"><path d="M399.815 261.584C406.489 261.584 411.899 256.173 411.899 249.5C411.899 242.826 406.489 237.416 399.815 237.416C393.142 237.416 387.731 242.826 387.731 249.5C387.731 256.173 393.142 261.584 399.815 261.584Z" fill="#8C7C5D"></path><path d="M229.039 388.367C152.322 388.367 90.1719 326.184 90.1719 249.5C90.1719 172.816 152.322 110.633 229.039 110.633C233.154 110.633 237.204 110.796 241.221 111.156C170.22 117.361 114.568 176.931 114.568 249.5C114.568 322.069 170.22 381.639 241.221 387.844C237.204 388.204 233.154 388.367 229.039 388.367Z" fill="#8C7C5D" stroke="#8C7C5D" stroke-width="1.3332" stroke-miterlimit="10"></path><path d="M241.221 387.844C170.22 381.639 114.568 322.069 114.568 249.5C114.568 176.931 170.22 117.361 241.221 111.156C312.19 117.328 367.907 176.931 367.907 249.5C367.907 322.069 312.19 381.672 241.221 387.844Z" stroke="#8C7C5D" stroke-width="1.3332" stroke-miterlimit="10"></path><path d="M241.221 387.844C170.22 381.639 114.568 322.069 114.568 249.5C114.568 176.931 170.22 117.361 241.221 111.156C312.19 117.328 367.907 176.931 367.907 249.5C367.907 322.069 312.19 381.672 241.221 387.844Z" stroke="#8C7C5D" stroke-width="1.3332" stroke-miterlimit="10"></path><path d="M276.918 271.48C289.057 271.48 298.898 261.639 298.898 249.5C298.898 237.361 289.057 227.52 276.918 227.52C264.779 227.52 254.938 237.361 254.938 249.5C254.938 261.639 264.779 271.48 276.918 271.48Z" fill="#8C7C5D"></path><path d="M337.272 261.584C343.946 261.584 349.356 256.173 349.356 249.5C349.356 242.826 343.946 237.416 337.272 237.416C330.599 237.416 325.188 242.826 325.188 249.5C325.188 256.173 330.599 261.584 337.272 261.584Z" fill="#8C7C5D"></path></svg>