<svg xmlns="http://www.w3.org/2000/svg" width="400" height="387" viewBox="0 0 400 387" fill="none"><g clip-path="url(#clip0_574_177)"><path d="M338.795 140.986C338.795 217.963 276.598 280.325 199.898 280.325C123.197 280.325 61 217.963 61 140.986C61 136.857 61.1633 132.793 61.5227 128.762C67.7293 200.005 127.313 255.846 199.898 255.846C272.482 255.846 332.066 200.005 338.272 128.762C338.632 132.793 338.795 136.857 338.795 140.986Z" fill="#8C7C5D" stroke="#8C7C5D" stroke-width="1.33341" stroke-miterlimit="10"></path><path d="M338.75 128.762C332.544 200.005 272.96 255.845 200.375 255.845C127.791 255.845 68.2071 200.005 62.0005 128.762C68.1744 57.5526 127.791 1.64648 200.375 1.64648C272.96 1.64648 332.576 57.5526 338.75 128.762Z" stroke="#8C7C5D" stroke-width="1.33341" stroke-miterlimit="10"></path><path d="M338.75 128.762C332.544 200.005 272.96 255.845 200.375 255.845C127.791 255.845 68.2071 200.005 62.0005 128.762C68.1744 57.5526 127.791 1.64648 200.375 1.64648C272.96 1.64648 332.576 57.5526 338.75 128.762Z" stroke="#8C7C5D" stroke-width="1.33341" stroke-miterlimit="10"></path><path d="M0 128.762H400" stroke="#8C7C5D" stroke-width="1.33341" stroke-miterlimit="10"></path><path d="M199.984 343.473C212.125 343.473 221.968 333.599 221.968 321.419C221.968 309.239 212.125 299.365 199.984 299.365C187.842 299.365 177.999 309.239 177.999 321.419C177.999 333.599 187.842 343.473 199.984 343.473Z" fill="#8C7C5D"></path><path d="M199.984 386.959C206.659 386.959 212.07 381.531 212.07 374.834C212.07 368.138 206.659 362.709 199.984 362.709C193.308 362.709 187.897 368.138 187.897 374.834C187.897 381.531 193.308 386.959 199.984 386.959Z" fill="#8C7C5D"></path></g><defs><clipPath id="clip0_574_177"><rect width="400" height="386.967" fill="white"></rect></clipPath></defs></svg>