<svg xmlns="http://www.w3.org/2000/svg" width="1017" height="1460" viewBox="0 0 1017 1460" fill="none"><path d="M463.908 1459.36V0" stroke="#8C7C5D" stroke-width="1.3332" stroke-miterlimit="10"></path><path d="M508.421 222.866C788.743 222.866 1015.84 449.785 1015.84 729.62C1015.84 1009.45 788.743 1236.37 508.421 1236.37C493.384 1236.37 478.587 1235.78 463.908 1234.47C723.346 1211.82 926.696 994.438 926.696 729.62C926.696 464.802 723.346 247.417 463.908 224.773C478.587 223.462 493.384 222.866 508.421 222.866Z" fill="#8C7C5D" stroke="#8C7C5D" stroke-width="1.3332" stroke-miterlimit="10"></path><path d="M463.907 224.773C723.346 247.418 926.696 464.802 926.696 729.62C926.696 994.439 723.346 1211.82 463.907 1234.47C204.589 1211.94 1 994.439 1 729.62C1 464.802 204.589 247.298 463.907 224.773Z" stroke="#8C7C5D" stroke-width="1.3332" stroke-miterlimit="10"></path><path d="M253.159 809.828C297.515 809.828 333.473 773.918 333.473 729.62C333.473 685.323 297.515 649.412 253.159 649.412C208.803 649.412 172.846 685.323 172.846 729.62C172.846 773.918 208.803 809.828 253.159 809.828Z" fill="#8C7C5D"></path><path d="M571.668 1146.39C596.054 1146.39 615.823 1126.65 615.823 1102.3C615.823 1077.94 596.054 1058.2 571.668 1058.2C547.282 1058.2 527.514 1077.94 527.514 1102.3C527.514 1126.65 547.282 1146.39 571.668 1146.39Z" fill="#8C7C5D"></path><path d="M678.594 1102.3C702.98 1102.3 722.749 1082.55 722.749 1058.2C722.749 1033.85 702.98 1014.1 678.594 1014.1C654.208 1014.1 634.439 1033.85 634.439 1058.2C634.439 1082.55 654.208 1102.3 678.594 1102.3Z" fill="#8C7C5D"></path></svg>