<svg xmlns="http://www.w3.org/2000/svg" width="1827" height="1827" viewBox="0 0 1827 1827" fill="none"><g clip-path="url(#clip0_696_5824)"><path d="M870.814 1642.17V182.812" stroke="#8C7C5D" stroke-width="1.3332" stroke-miterlimit="10"></path><path d="M915.327 405.679C1195.65 405.679 1422.75 632.598 1422.75 912.433C1422.75 1192.27 1195.65 1419.19 915.327 1419.19C900.291 1419.19 885.493 1418.59 870.814 1417.28C1130.25 1394.64 1333.6 1177.25 1333.6 912.433C1333.6 647.614 1130.25 430.23 870.814 407.586C885.493 406.275 900.291 405.679 915.327 405.679Z" fill="#8C7C5D" stroke="#8C7C5D" stroke-width="1.3332" stroke-miterlimit="10"></path><path d="M870.814 407.586C1130.25 430.23 1333.6 647.615 1333.6 912.433C1333.6 1177.25 1130.25 1394.64 870.814 1417.28C611.495 1394.76 407.906 1177.25 407.906 912.433C407.906 647.615 611.495 430.111 870.814 407.586Z" stroke="#8C7C5D" stroke-width="1.3332" stroke-miterlimit="10"></path><path d="M870.814 407.586C1130.25 430.23 1333.6 647.615 1333.6 912.433C1333.6 1177.25 1130.25 1394.64 870.814 1417.28C611.495 1394.76 407.906 1177.25 407.906 912.433C407.906 647.615 611.495 430.111 870.814 407.586Z" stroke="#8C7C5D" stroke-width="1.3332" stroke-miterlimit="10"></path><path d="M660.066 992.641C704.422 992.641 740.379 956.731 740.379 912.433C740.379 868.135 704.422 832.225 660.066 832.225C615.71 832.225 579.752 868.135 579.752 912.433C579.752 956.731 615.71 992.641 660.066 992.641Z" fill="#8C7C5D"></path><path d="M978.575 1329.21C1002.96 1329.21 1022.73 1309.46 1022.73 1285.11C1022.73 1260.76 1002.96 1241.01 978.575 1241.01C954.189 1241.01 934.42 1260.76 934.42 1285.11C934.42 1309.46 954.189 1329.21 978.575 1329.21Z" fill="#8C7C5D"></path><path d="M1085.5 1285.11C1109.89 1285.11 1129.65 1265.37 1129.65 1241.01C1129.65 1216.66 1109.89 1196.92 1085.5 1196.92C1061.11 1196.92 1041.35 1216.66 1041.35 1241.01C1041.35 1265.37 1061.11 1285.11 1085.5 1285.11Z" fill="#8C7C5D"></path></g><defs><clipPath id="clip0_696_5824"><rect width="1026.77" height="1459.58" fill="white" transform="translate(401.939 182.7)"></rect></clipPath></defs></svg>